<svg width="83" height="83" viewBox="0 0 83 83" fill="none" xmlns="http://www.w3.org/2000/svg">
<g id="Icon">
<path fill-rule="evenodd" clip-rule="evenodd" d="M26.5499 8.42969e-07H52.8414C56.7524 -3.25853e-05 59.9071 -5.9541e-05 62.4616 0.208651C65.0918 0.423547 67.402 0.877566 69.5394 1.96663C72.9345 3.69652 75.6948 6.45682 77.4247 9.85192C78.5137 11.9893 78.9678 14.2996 79.1827 16.9298C79.3914 19.4842 79.3913 22.6386 79.3913 26.5494V44.2234C77.2116 42.7031 74.781 41.5176 72.1739 40.7417V28.8696H7.2174V52.687C7.2174 56.7886 7.2202 59.6478 7.40207 61.8738C7.5805 64.0577 7.91313 65.3124 8.39737 66.2628C9.4353 68.2998 11.0915 69.956 13.1285 70.9939C14.0789 71.4782 15.3336 71.8108 17.5175 71.9892C19.7435 72.1711 22.6027 72.1739 26.7044 72.1739H40.7417C41.5176 74.781 42.7031 77.2116 44.2234 79.3913H26.5498C22.6389 79.3913 19.4842 79.3914 16.9298 79.1827C14.2996 78.9678 11.9893 78.5137 9.85192 77.4247C6.45682 75.6948 3.69652 72.9345 1.96663 69.5394C0.877566 67.402 0.423547 65.0918 0.208651 62.4616C-5.9541e-05 59.9071 -3.25853e-05 56.7525 8.42969e-07 52.8415V26.5499C-3.25853e-05 22.6389 -5.9541e-05 19.4842 0.208651 16.9298C0.423547 14.2996 0.877566 11.9893 1.96663 9.85192C3.69652 6.45682 6.45682 3.69652 9.85192 1.96663C11.9893 0.877566 14.2996 0.423547 16.9298 0.208651C19.4843 -5.9541e-05 22.6389 -3.25853e-05 26.5499 8.42969e-07ZM17.5175 7.40207C15.3336 7.5805 14.0789 7.91313 13.1285 8.39737C11.0915 9.4353 9.4353 11.0915 8.39737 13.1285C7.91313 14.0789 7.5805 15.3336 7.40207 17.5175C7.30625 18.6903 7.26014 20.0388 7.23795 21.6522H72.1534C72.1312 20.0388 72.0851 18.6903 71.9892 17.5175C71.8108 15.3336 71.4782 14.0789 70.9939 13.1285C69.956 11.0915 68.2998 9.4353 66.2628 8.39737C65.3124 7.91313 64.0577 7.5805 61.8738 7.40207C59.6478 7.2202 56.7886 7.2174 52.687 7.2174H26.7044C22.6027 7.2174 19.7435 7.2202 17.5175 7.40207Z" fill="#2A90E4"/>
<path d="M50.5217 43.3044C50.5217 43.6594 50.4705 44.0025 50.3749 44.3267C49.282 45.1005 48.2533 45.9591 47.2984 46.8927C47.1718 46.9062 47.0432 46.913 46.913 46.913C44.92 46.913 43.3043 45.2974 43.3043 43.3044C43.3043 41.3113 44.92 39.6957 46.913 39.6957C48.9061 39.6957 50.5217 41.3113 50.5217 43.3044Z" fill="#2A90E4"/>
<path d="M21.6522 43.3044C21.6522 45.2974 20.0365 46.913 18.0435 46.913C16.0505 46.913 14.4348 45.2974 14.4348 43.3044C14.4348 41.3113 16.0505 39.6957 18.0435 39.6957C20.0365 39.6957 21.6522 41.3113 21.6522 43.3044Z" fill="#2A90E4"/>
<path d="M36.087 43.3044C36.087 45.2974 34.4713 46.913 32.4783 46.913C30.4852 46.913 28.8696 45.2974 28.8696 43.3044C28.8696 41.3113 30.4852 39.6957 32.4783 39.6957C34.4713 39.6957 36.087 41.3113 36.087 43.3044Z" fill="#2A90E4"/>
<path d="M18.0435 61.3478C20.0365 61.3478 21.6522 59.7322 21.6522 57.7391C21.6522 55.7461 20.0365 54.1304 18.0435 54.1304C16.0505 54.1304 14.4348 55.7461 14.4348 57.7391C14.4348 59.7322 16.0505 61.3478 18.0435 61.3478Z" fill="#2A90E4"/>
<path d="M32.4783 61.3478C34.4713 61.3478 36.087 59.7322 36.087 57.7391C36.087 55.7461 34.4713 54.1304 32.4783 54.1304C30.4852 54.1304 28.8696 55.7461 28.8696 57.7391C28.8696 59.7322 30.4852 61.3478 32.4783 61.3478Z" fill="#2A90E4"/>
<path fill-rule="evenodd" clip-rule="evenodd" d="M64.9565 83C74.9217 83 83 74.9217 83 64.9565C83 54.9914 74.9217 46.913 64.9565 46.913C54.9914 46.913 46.913 54.9914 46.913 64.9565C46.913 74.9217 54.9914 83 64.9565 83ZM72.7033 56.0047C74.2607 56.8946 74.8018 58.8786 73.9119 60.436L66.6945 73.0664C66.1437 74.0303 65.1386 74.6461 64.0296 74.6991C62.9207 74.7522 61.8615 74.235 61.2212 73.328L55.8082 65.6595C54.7738 64.1941 55.1232 62.1676 56.5886 61.1332C58.054 60.0988 60.0805 60.4482 61.1149 61.9136L63.5859 65.4141L68.2721 57.2132C69.162 55.6558 71.146 55.1147 72.7033 56.0047Z" fill="#2A90E4"/>
</g>
</svg>
